<?xml version="1.0" encoding="UTF-8" standalone="no"?>
<!DOCTYPE svg PUBLIC "-//W3C//DTD SVG 20010904//EN" "http://www.w3.org/TR/2001/REC-SVG-20010904/DTD/svg10.dtd">
<svg version="1.0" xmlns="http://www.w3.org/2000/svg" width="287.000000pt" height="287.000000pt" viewBox="0 0 287.000000 287.000000" preserveAspectRatio="xMidYMid meet">
<metadata>
Created by potrace 1.11, written by Peter Selinger 2001-2013
</metadata>
<g transform="translate(0.000000,287.000000) scale(0.100000,-0.100000)" fill="#000000" stroke="none">
<path d="M1713 2840 c-3 -11 -10 -17 -17 -13 -6 3 -8 3 -4 -1 4 -5 3 -19 -2 -32 -8 -21 -3 -28 50 -69 33 -26 60 -50 60 -56 0 -5 7 -9 15 -9 8 0 15 -4 15 -9 0 -4 14 -22 30 -39 17 -18 30 -35 30 -40 0 -4 9 -14 19 -22 11 -7 18 -17 15 -22 -3 -4 -1 -8 4 -8 10 0 37 -50 33 -63 -1 -5 3 -6 8 -3 8 5 23 -23 24 -44 0 -3 7 -11 14 -18 7 -7 13 -19 13 -26 0 -8 7 -19 15 -26 8 -7 15 -23 15 -37 0 -14 4 -21 10 -18 6 3 10 -3 10 -15 0 -12 7 -34 15 -50 9 -17 13 -30 10 -30 -3 0 0 -6 7 -13 7 -8 29 -13 52 -11 59 2 60 3 46 19 -6 8 -9 18 -6 24 3 5 1 11 -5 13 -6 2 -11 16 -11 31 0 15 -4 24 -8 22 -10 -6 -22 24 -14 36 3 5 1 9 -4 9 -5 0 -15 18 -22 40 -7 22 -17 40 -22 40 -5 0 -6 5 -3 10 3 6 1 10 -4 10 -6 0 -11 9 -11 20 0 11 -4 20 -10 20 -5 0 -10 7 -10 16 0 8 -4 13 -9 9 -6 -3 -8 4 -6 15 2 13 -1 20 -11 20 -8 0 -14 9 -14 21 0 11 -4 17 -10 14 -5 -3 -10 -1 -10 5 0 23 -122 163 -134 154 -3 -2 -4 -1 -1 3 6 8 -34 53 -47 53 -5 0 -19 11 -32 25 -13 14 -28 25 -35 25 -6 0 -11 5 -11 10 0 6 -7 10 -16 10 -8 0 -12 5 -9 10 3 6 3 10 0 10 -4 0 -9 -9 -12 -20z"/>
<path d="M1106 2688 c-9 -5 -16 -6 -16 -3 0 4 -15 -8 -32 -26 -18 -18 -32 -36 -30 -41 1 -4 -2 -8 -7 -8 -5 0 -12 -10 -16 -22 -10 -35 -12 -78 -3 -72 13 8 9 -10 -4 -25 -10 -11 -10 -13 0 -7 8 5 12 0 12 -13 0 -12 5 -21 11 -21 5 0 7 -5 3 -12 -4 -6 1 -17 11 -25 14 -9 15 -13 4 -13 -10 -1 -9 -3 4 -11 9 -6 15 -14 12 -20 -4 -5 -1 -9 5 -9 6 0 8 -5 5 -10 -4 -6 -1 -9 5 -8 7 2 17 -6 23 -17 7 -11 18 -24 25 -28 6 -4 12 -12 12 -17 0 -9 19 -36 48 -65 6 -8 12 -18 12 -24 0 -6 5 -11 11 -11 5 0 7 -4 4 -10 -3 -5 1 -10 9 -10 9 0 16 -6 16 -13 0 -7 9 -20 20 -30 12 -10 18 -22 15 -27 -3 -5 4 -11 15 -15 11 -4 18 -11 15 -16 -4 -5 -1 -9 4 -9 6 0 11 -7 11 -15 0 -8 9 -20 20 -27 11 -7 20 -16 20 -20 0 -7 7 -16 52 -70 10 -11 20 -29 23 -39 4 -11 11 -17 16 -14 5 4 9 0 9 -8 0 -8 7 -18 16 -21 9 -4 14 -9 11 -12 -2 -3 5 -15 17 -28 35 -37 56 -66 56 -76 0 -6 5 -10 10 -10 6 0 10 -7 10 -16 0 -8 5 -12 10 -9 6 3 10 -3 10 -14 0 -11 -4 -23 -10 -26 -5 -3 -10 -1 -10 5 0 6 -4 9 -9 5 -6 -3 -15 4 -21 15 -6 11 -15 18 -21 15 -5 -4 -9 1 -9 10 0 8 -7 18 -15 21 -8 4 -12 10 -9 15 3 5 -3 9 -12 9 -10 0 -15 3 -11 6 7 7 -17 34 -30 34 -5 0 -17 16 -27 35 -10 19 -23 32 -27 29 -5 -3 -9 0 -9 7 0 6 -11 22 -26 35 -14 13 -22 24 -19 24 3 0 -6 12 -22 28 -15 15 -31 26 -36 24 -5 -1 -6 2 -3 7 3 5 -1 14 -9 21 -8 7 -12 16 -9 21 3 5 0 9 -5 9 -15 0 -51 32 -51 45 0 6 -9 17 -19 25 -11 7 -18 17 -15 22 3 4 -3 8 -12 8 -10 0 -15 3 -12 6 3 3 -4 16 -16 29 -58 65 -66 75 -66 82 -1 4 -14 19 -30 33 -17 13 -30 30 -30 38 0 7 -4 10 -10 7 -5 -3 -10 -1 -10 6 0 6 -10 20 -22 30 -11 11 -17 19 -12 19 5 0 -2 7 -14 16 -12 8 -21 18 -19 22 2 4 -7 17 -20 29 -13 12 -23 19 -23 15 0 -4 -8 5 -18 21 -10 15 -22 24 -25 20 -4 -3 -7 2 -7 12 0 10 -3 15 -7 12 -3 -4 -17 0 -30 8 -13 9 -23 12 -23 9 0 -4 -8 0 -18 9 -15 13 -21 14 -32 4 -9 -8 -11 -8 -6 0 6 11 0 11 -67 4 -5 -1 -5 -6 -1 -13 4 -6 3 -8 -3 -5 -6 4 -24 0 -41 -9 -39 -19 -73 -86 -68 -134 5 -50 17 -90 26 -90 5 0 7 -8 6 -17 -2 -9 6 -25 16 -35 10 -10 16 -23 13 -28 -3 -5 4 -11 15 -15 19 -6 25 -18 20 -40 -1 -5 1 -7 5 -3 8 8 55 -36 55 -52 0 -5 7 -10 16 -10 8 0 13 -3 11 -7 -5 -10 30 -43 37 -36 3 4 6 -3 6 -15 0 -12 6 -22 14 -22 7 0 16 -9 19 -20 3 -11 13 -20 24 -20 15 0 16 -2 3 -10 -13 -8 -12 -10 3 -10 9 0 17 -4 17 -8 0 -4 18 -27 40 -51 22 -23 40 -47 40 -52 0 -5 7 -9 15 -9 14 0 20 -13 15 -35 -1 -5 1 -7 5 -3 9 9 35 -16 35 -33 0 -7 3 -9 7 -6 3 4 11 -3 18 -16 6 -12 16 -21 22 -20 6 1 14 -9 17 -22 4 -14 11 -24 17 -22 6 1 16 -7 22 -18 7 -11 18 -24 25 -28 6 -4 12 -14 12 -21 0 -8 9 -16 20 -19 11 -3 20 -12 20 -21 0 -9 5 -16 10 -16 6 0 10 -7 10 -16 0 -8 4 -13 9 -9 6 3 15 -5 22 -17 7 -13 29 -40 51 -60 21 -21 38 -40 38 -43 0 -3 14 -19 30 -37 33 -35 40 -67 13 -64 -21 1 -93 67 -86 79 4 7 -12 11 -30 8 -5 -1 -6 3 -2 9 3 5 2 10 -4 10 -5 0 -13 9 -16 20 -4 11 -11 18 -16 15 -5 -4 -9 -1 -9 5 0 6 -5 8 -12 4 -9 -5 -8 -2 1 9 12 15 12 17 -2 12 -10 -4 -17 1 -21 13 -4 11 -13 23 -21 26 -8 3 -15 13 -15 23 0 15 -2 16 -10 3 -8 -13 -10 -13 -10 -1 0 8 -16 30 -36 48 -20 18 -33 33 -30 33 4 0 -20 27 -53 59 -32 33 -57 62 -54 64 2 3 -4 8 -15 11 -10 4 -25 17 -32 31 -7 13 -17 22 -22 19 -4 -3 -8 1 -8 9 0 8 -7 18 -16 21 -9 3 -12 11 -8 18 4 7 4 10 0 6 -10 -8 -86 68 -86 85 0 7 -4 6 -10 -3 -9 -13 -10 -13 -10 0 0 18 -35 51 -44 43 -3 -4 -6 1 -6 10 0 10 -8 17 -20 17 -11 0 -20 5 -20 12 0 6 -3 8 -7 5 -3 -4 -12 -2 -19 4 -8 6 -29 11 -48 12 -19 0 -32 5 -30 9 5 8 -13 1 -83 -29 -18 -8 -33 -19 -33 -25 0 -6 -8 -17 -17 -25 -10 -8 -12 -11 -4 -8 9 5 8 0 -4 -18 -9 -15 -14 -31 -11 -36 4 -5 2 -12 -4 -16 -6 -4 -7 -12 -3 -18 4 -7 8 -16 8 -22 1 -5 5 -19 9 -30 4 -11 12 -32 18 -47 12 -32 53 -79 62 -71 6 6 10 -12 7 -29 0 -5 3 -8 8 -8 12 0 111 -99 111 -111 0 -5 7 -9 16 -9 8 0 12 -5 9 -10 -3 -6 4 -14 17 -19 13 -6 19 -10 14 -10 -5 -1 16 -25 47 -55 31 -29 53 -56 50 -60 -4 -3 1 -6 10 -6 9 0 17 -6 17 -14 0 -8 9 -18 21 -21 11 -4 18 -9 16 -12 -7 -6 42 -53 55 -53 6 0 9 -3 5 -6 -3 -3 23 -34 59 -69 35 -35 64 -69 64 -76 0 -7 3 -10 6 -6 7 7 34 -17 34 -31 0 -5 11 -15 25 -22 14 -7 25 -20 25 -27 0 -7 8 -17 18 -20 21 -8 42 -35 36 -45 -3 -4 2 -5 11 -2 11 5 18 0 22 -15 3 -11 9 -19 13 -16 4 3 13 -2 20 -10 7 -8 9 -15 4 -16 -5 0 -19 -2 -31 -5 -16 -3 -23 1 -23 13 0 9 -3 13 -7 10 -3 -4 -20 8 -36 26 -17 17 -26 26 -22 18 5 -9 4 -12 -3 -7 -7 4 -12 14 -12 22 0 8 -4 14 -9 14 -13 0 -86 70 -84 81 2 5 0 9 -5 8 -4 -1 -18 2 -30 6 -18 6 -20 10 -10 16 10 7 9 9 -5 9 -10 0 -15 5 -12 10 3 6 0 10 -7 10 -8 0 -20 9 -28 19 -7 11 -17 18 -21 15 -4 -2 -10 5 -14 16 -3 11 -11 20 -16 20 -5 0 -25 15 -43 33 -18 17 -42 39 -52 47 -11 8 -28 22 -39 30 -14 11 -17 11 -11 1 6 -9 1 -8 -16 3 -14 9 -28 13 -33 9 -4 -5 -5 1 -1 11 5 15 4 17 -7 8 -10 -9 -17 -8 -25 0 -7 7 -12 8 -12 2 0 -6 -14 -9 -31 -6 -22 3 -30 1 -25 -7 5 -7 1 -9 -8 -5 -9 3 -16 1 -16 -6 0 -6 -4 -9 -9 -6 -12 8 -67 -62 -63 -80 2 -8 -3 -14 -10 -14 -9 0 -9 -3 2 -10 13 -8 13 -10 1 -10 -11 0 -12 -3 -4 -11 6 -6 9 -18 6 -25 -3 -8 -1 -14 4 -14 5 0 9 -9 10 -20 1 -11 9 -27 17 -36 9 -9 13 -20 10 -26 -4 -6 -3 -9 2 -6 5 3 18 -5 29 -19 11 -13 36 -41 55 -60 19 -20 34 -40 32 -45 -1 -5 1 -7 6 -4 11 7 72 -46 72 -62 0 -7 9 -12 19 -12 11 0 23 -9 26 -20 3 -11 11 -20 17 -20 5 0 19 -11 30 -25 11 -14 26 -25 34 -25 8 0 12 -4 9 -10 -3 -5 8 -18 24 -28 17 -10 29 -21 26 -24 -3 -2 6 -11 20 -18 14 -7 25 -19 25 -26 0 -8 6 -11 17 -7 9 4 14 2 11 -3 -2 -5 6 -19 19 -31 13 -12 23 -19 23 -15 0 4 5 -1 11 -11 6 -9 15 -14 21 -11 7 4 8 2 4 -4 -3 -6 3 -16 14 -22 11 -6 17 -16 14 -22 -4 -6 -3 -8 3 -5 6 4 31 -13 57 -37 25 -24 46 -42 46 -40 0 3 15 -10 34 -28 19 -18 58 -53 86 -78 29 -25 62 -55 75 -67 13 -12 26 -19 29 -16 3 4 6 -1 6 -10 0 -10 6 -17 13 -17 7 0 20 -8 28 -17 26 -29 68 -63 79 -63 6 0 10 -4 10 -10 0 -5 7 -10 16 -10 8 0 13 -4 10 -9 -3 -5 2 -11 12 -15 9 -3 35 -17 57 -30 22 -13 43 -22 48 -19 4 2 6 -1 5 -9 -2 -8 5 -12 21 -10 14 2 21 0 17 -7 -4 -6 -1 -9 7 -5 8 3 18 1 21 -5 4 -6 13 -8 21 -4 8 3 15 1 15 -4 0 -5 16 -9 36 -10 20 0 40 -7 45 -14 5 -9 9 -10 9 -2 0 13 18 12 39 -1 11 -7 13 -5 7 9 -6 18 -6 18 15 -1 12 -10 19 -13 15 -6 -4 6 -2 12 3 12 6 0 11 -5 11 -10 0 -7 6 -7 18 -2 9 5 22 7 29 5 6 -2 14 0 17 6 4 6 13 8 21 4 9 -3 23 1 32 8 12 10 15 10 9 2 -4 -7 -2 -13 3 -13 6 0 11 5 11 11 0 6 6 9 14 6 7 -3 19 0 25 6 6 6 19 12 30 14 37 5 72 23 66 33 -4 6 -3 10 2 8 12 -3 93 36 93 44 0 5 6 8 14 8 8 0 16 7 20 15 3 8 15 15 26 15 11 0 20 4 20 10 0 5 16 20 35 33 19 13 32 27 28 30 -3 4 -1 7 5 7 16 0 112 95 112 110 0 6 4 9 9 6 5 -3 23 17 41 44 18 28 36 50 42 50 5 0 7 4 4 9 -3 5 1 14 9 21 8 7 15 19 15 27 0 8 5 11 13 7 6 -4 9 -4 5 0 -4 5 2 24 12 44 11 19 17 39 14 44 -3 4 0 8 6 8 7 0 10 7 6 15 -3 8 -1 15 4 15 5 0 7 7 4 15 -4 8 -2 15 4 15 6 0 9 8 7 18 -1 9 4 24 12 34 8 9 10 19 5 22 -5 3 -7 23 -3 43 3 21 5 65 3 98 -1 33 -2 73 -2 88 0 16 -4 26 -8 23 -8 -5 -9 21 -1 49 1 6 -1 18 -6 28 -4 10 -5 21 -2 24 4 3 2 14 -4 24 -7 14 -6 19 3 19 8 0 9 3 3 8 -5 4 -11 25 -13 47 -4 54 -6 68 -15 83 -5 7 -3 12 4 12 10 0 10 3 1 12 -7 7 -12 31 -12 54 0 24 -5 46 -11 50 -6 3 -9 17 -6 30 2 14 1 26 -3 29 -6 4 -7 120 0 120 1 0 3 18 5 40 3 36 10 76 15 83 2 1 3 5 4 10 1 4 5 13 9 20 5 6 6 12 2 12 -3 0 -1 9 5 21 6 11 13 30 15 41 3 12 10 25 17 30 7 4 9 8 4 8 -5 0 -3 7 4 15 7 8 10 15 6 15 -3 0 4 17 17 38 13 20 25 42 26 47 4 26 13 45 22 45 6 0 7 5 4 10 -3 6 -1 10 6 10 7 0 10 3 6 6 -3 3 -2 17 3 30 7 17 6 24 -3 24 -8 0 -7 4 3 10 12 8 12 10 -5 10 -17 0 -17 2 -5 10 11 7 11 10 2 10 -7 0 -23 11 -35 24 -12 13 -25 24 -29 25 -4 1 -22 8 -40 16 -21 8 -35 10 -39 3 -4 -5 -9 -2 -13 7 -3 10 -11 13 -18 8 -7 -4 -24 -9 -38 -10 -42 -3 -71 -12 -96 -28 -13 -8 -30 -15 -39 -15 -8 0 -15 -4 -15 -10 0 -5 -6 -10 -14 -10 -8 0 -18 -5 -22 -12 -5 -7 -3 -8 6 -3 9 5 11 4 6 -3 -4 -7 -14 -12 -22 -12 -8 0 -14 -3 -14 -8 0 -4 -12 -21 -27 -37 -16 -16 -28 -33 -28 -37 0 -4 -7 -16 -15 -26 -16 -20 -23 -37 -24 -64 0 -10 -3 -18 -6 -18 -4 0 -6 -27 -6 -60 1 -34 -3 -60 -9 -60 -5 0 -3 -5 5 -10 10 -7 11 -13 5 -17 -6 -5 -11 -16 -12 -25 -1 -34 -3 -39 -11 -34 -5 3 -8 -8 -7 -24 1 -16 -1 -28 -4 -26 -3 2 -12 -2 -19 -10 -7 -8 -9 -14 -5 -14 11 0 -40 -35 -52 -35 -5 -1 -9 -7 -7 -15 1 -10 -3 -8 -13 4 -8 11 -15 15 -15 9 0 -6 -9 -13 -20 -16 -11 -3 -18 0 -17 6 1 6 -7 11 -18 11 -11 0 -24 6 -28 13 -5 8 -12 11 -17 8 -4 -3 -11 2 -14 11 -3 8 -11 12 -16 9 -6 -4 -9 -1 -8 7 2 7 -3 12 -9 11 -7 -2 -13 2 -13 7 0 6 -18 28 -40 50 -22 22 -40 42 -40 44 0 7 -27 41 -57 73 -13 13 -23 28 -23 32 0 5 -11 16 -24 27 -14 10 -23 21 -20 25 2 4 -3 10 -12 13 -9 4 -14 9 -11 13 4 3 -3 14 -15 24 -11 11 -17 19 -12 19 5 0 1 5 -9 11 -9 6 -15 14 -12 20 4 5 0 9 -9 9 -8 0 -20 14 -28 30 -7 17 -16 30 -20 30 -5 0 -8 7 -8 16 0 8 -4 12 -10 9 -5 -3 -11 -1 -11 4 -1 6 -2 17 -3 24 -1 6 -7 11 -14 9 -7 -1 -12 3 -12 9 0 11 -50 82 -62 87 -5 2 -8 10 -8 18 0 8 -4 14 -10 14 -5 0 -10 7 -10 15 0 8 -4 15 -8 15 -5 0 -14 12 -20 26 -7 14 -17 22 -22 19 -6 -3 -11 1 -11 9 -1 9 -2 20 -3 25 0 5 -20 30 -43 55 -23 25 -40 46 -37 46 3 0 -6 11 -18 24 -13 13 -26 21 -31 19 -4 -2 -7 -1 -6 4 3 17 -1 33 -9 31 -4 -2 -18 7 -32 20 -13 12 -28 22 -32 22 -5 0 -6 4 -3 10 3 5 0 7 -8 4 -8 -3 -21 2 -30 10 -17 17 -84 19 -111 4z"/>
<path d="M1579 2659 c-8 -5 -9 -9 -4 -9 6 0 4 -4 -3 -8 -17 -11 -24 -52 -9 -49 7 1 11 -4 9 -11 -1 -8 2 -11 7 -8 5 3 28 -12 51 -34 23 -22 47 -40 52 -40 5 0 7 -4 4 -9 -3 -5 1 -11 9 -15 8 -3 15 -11 15 -18 0 -8 9 -20 20 -28 11 -8 20 -20 20 -28 0 -7 7 -15 16 -19 8 -3 13 -12 10 -19 -3 -8 -2 -14 3 -14 5 0 21 -25 35 -55 15 -30 31 -57 36 -60 5 -3 6 -13 3 -22 -4 -9 -2 -14 3 -11 5 4 10 -7 11 -23 3 -38 26 -60 63 -63 33 -2 51 27 31 47 -6 6 -11 17 -11 23 0 7 -5 25 -12 41 -6 15 -11 31 -10 36 1 4 -2 7 -6 7 -5 0 -15 18 -22 40 -7 22 -21 48 -31 59 -10 10 -15 21 -12 25 3 3 -2 8 -11 12 -9 3 -13 10 -10 15 3 5 0 9 -5 9 -6 0 -11 7 -11 15 0 8 -4 15 -10 15 -5 0 -10 10 -10 23 0 15 -3 18 -9 9 -6 -10 -11 -5 -21 17 -6 17 -15 29 -19 28 -3 -1 -24 16 -47 38 -22 22 -51 47 -63 55 -13 8 -29 20 -36 27 -7 7 -17 8 -26 2z"/>
<path d="M254 1073 c4 -8 2 -13 -7 -13 -7 0 -14 -7 -14 -15 0 -8 4 -15 9 -15 4 0 8 -12 8 -27 0 -22 2 -25 10 -13 8 12 10 11 10 -7 0 -13 5 -23 10 -23 6 0 10 -8 10 -18 0 -9 9 -23 21 -30 12 -7 18 -16 15 -19 -3 -3 0 -11 7 -18 7 -7 21 -25 32 -41 11 -15 32 -39 47 -52 15 -14 25 -29 21 -35 -3 -6 -1 -7 4 -4 6 4 13 0 17 -8 3 -8 13 -15 21 -15 9 0 13 -4 10 -10 -3 -6 4 -10 17 -10 18 0 20 -2 8 -10 -12 -8 -12 -10 5 -10 11 0 31 -12 44 -25 12 -14 27 -23 31 -20 5 3 10 2 12 -3 1 -4 23 -18 48 -30 45 -22 45 -22 48 -2 2 11 7 18 12 15 4 -3 7 3 5 12 -2 10 -4 24 -4 31 -1 6 -4 11 -8 11 -18 -3 -33 2 -46 16 -8 8 -21 16 -28 17 -8 2 -22 12 -31 22 -10 10 -18 16 -18 12 0 -3 -21 14 -46 39 -26 25 -51 45 -55 45 -5 0 -9 9 -9 21 0 11 -4 18 -9 15 -9 -6 -47 44 -43 56 1 5 -4 7 -11 5 -6 -1 -11 4 -10 11 2 6 -2 12 -7 12 -6 0 -10 5 -10 11 0 7 -8 18 -17 26 -12 10 -13 12 -3 8 8 -4 4 3 -9 14 -13 12 -20 21 -17 21 4 0 0 14 -9 30 -9 17 -18 30 -21 30 -3 0 -2 -6 2 -12 6 -10 4 -10 -7 0 -7 6 -17 12 -22 12 -4 0 -5 -6 -1 -12 5 -8 0 -7 -11 2 -11 9 -16 10 -11 3z"/>
<path d="M90 993 c0 -6 -8 -9 -18 -6 -10 2 -30 -1 -46 -7 -26 -9 -27 -12 -14 -28 7 -9 20 -29 28 -44 7 -16 17 -28 22 -28 4 0 8 -9 8 -20 0 -11 4 -20 8 -20 5 0 15 -12 23 -27 8 -16 21 -33 29 -40 8 -7 11 -13 6 -13 -5 0 3 -11 18 -25 15 -14 24 -25 21 -25 -6 0 12 -21 89 -100 89 -90 162 -150 186 -150 6 0 10 -5 10 -11 0 -6 7 -8 17 -5 10 4 14 4 10 0 -9 -9 30 -37 42 -30 5 3 12 -1 15 -10 3 -9 13 -14 21 -10 8 3 17 1 20 -4 3 -4 -1 -11 -7 -13 -10 -4 -10 -6 -1 -6 7 -1 17 8 23 19 6 11 8 20 4 20 -3 0 -2 6 4 13 6 6 11 16 12 20 1 11 -26 37 -39 37 -6 0 -11 5 -11 10 0 6 -8 10 -17 10 -22 1 -55 25 -46 33 3 4 -1 7 -10 7 -17 0 -33 11 -96 67 -20 18 -40 33 -44 33 -5 0 -5 5 -2 10 3 6 2 10 -4 10 -10 0 -61 47 -61 56 0 12 -28 33 -35 26 -5 -4 -5 -2 -2 4 3 6 -4 21 -17 35 -23 25 -40 58 -37 72 1 5 -3 6 -8 3 -5 -3 -15 2 -22 11 -12 14 -12 16 1 8 8 -5 5 4 -8 19 -12 16 -19 33 -15 39 3 6 1 7 -5 3 -7 -4 -12 -1 -12 6 -1 16 -39 67 -40 51z"/>
</g>
</svg>